# xmcd
# 
# Track frame offsets:
#     150
#     16077
#     30872
#     45367
#     67791
#     84554
#     100086
#     121129
#     139175
#     160265
# 
# Disc length: 2362
# 
# Revision: 2
# Processed by: cddbd v1.5.2PL0 Copyright (c) Steve Scherf et al.
# Submitted via: fre:ac v1.0.17
# 
DISCID=6709380a
DTITLE=Jehro - Bohemian soul song
DYEAR=2015
DGENRE=
TTITLE0=Life
TTITLE1=If I could change the world
TTITLE2=How long
TTITLE3=Almont there
TTITLE4=Era nova
TTITLE5=Waiting my life
TTITLE6=On my own
TTITLE7=Without love
TTITLE8=Save me
TTITLE9=Wanna live
EXTD=
EXTT0=
EXTT1=
EXTT2=
EXTT3=
EXTT4=
EXTT5=
EXTT6=
EXTT7=
EXTT8=
EXTT9=
PLAYORDER=
